<?xml version="1.0" encoding="utf-8"?>
<!-- Generator: Adobe Illustrator 15.0.0, SVG Export Plug-In . SVG Version: 6.00 Build 0)  -->
<!DOCTYPE svg PUBLIC "-//W3C//DTD SVG 1.1//EN" "http://www.w3.org/Graphics/SVG/1.1/DTD/svg11.dtd">
<svg version="1.1" id="Layer_1" xmlns="http://www.w3.org/2000/svg" xmlns:xlink="http://www.w3.org/1999/xlink" x="0px" y="0px"
	 width="202.08px" height="60px" viewBox="0 0 202.08 60" enable-background="new 0 0 202.08 60" xml:space="preserve">
<path fill="none" d="M8.979,38.563c-0.161,1.837-0.29,3.667-0.385,5.489c1.34-0.392,2.677-0.758,4.009-1.099
	c1.196,1.515,2.392,3.03,3.587,4.546c-0.52,0.749-0.952,1.543-1.292,2.378c-0.086,0.217-0.209,0.53-0.367,0.94
	s-0.34,0.907-0.544,1.493c-1.328,0.481-2.453,1.173-3.359,2.056c-0.869,0.847-1.634,1.95-2.275,3.301
	c-0.182,0.053-0.364,0.106-0.546,0.16c-0.16-2.395-0.263-4.81-0.308-7.243c-1.291,0.481-2.584,0.989-3.879,1.524
	c-1.107-1.169-2.214-2.337-3.321-3.506c0.887-1.807,1.537-3.665,1.954-5.598c2.294-1.005,3.894-1.868,4.813-2.687
	c0.252-0.266,0.504-0.53,0.757-0.794c0.294-0.257,0.499-0.581,0.615-0.972s0.085-0.702-0.097-0.933
	c-0.13-0.164-0.611-0.278-1.448-0.329c-0.112-0.027-0.225-0.055-0.337-0.082c-0.21-0.261-0.058-0.618,0.46-1.062
	c0.648-0.556,1.212-0.521,1.688,0.091C8.986,36.603,9.071,37.38,8.979,38.563L8.979,38.563L8.979,38.563z M7.233,42.614
	c-0.273,0.276-0.574,0.564-0.899,0.864c-0.938,0.863-2.097,1.641-3.489,2.355c0.795,0.904,1.59,1.808,2.385,2.712
	c0.804-0.332,1.608-0.653,2.412-0.965c0.075-1.911,0.186-3.831,0.333-5.759C7.754,42.074,7.507,42.338,7.233,42.614L7.233,42.614z
	 M8.435,47.137c-0.113,2.164-0.179,4.316-0.198,6.455c0.42-0.593,0.988-1.238,1.709-1.926c0.985-0.942,2.206-1.69,3.645-2.223
	c-0.88-1.082-1.759-2.164-2.638-3.247C10.114,46.5,9.275,46.813,8.435,47.137L8.435,47.137z"/>
<path fill="none" d="M28.999,40.546c-1.766,0.11-3.022-0.358-3.749-1.47c-0.894,1.948-1.737,3.906-2.531,5.871
	c-1.731,0.277-3.08-0.194-4.03-1.479c-1.646-2.231-3.293-4.462-4.939-6.693c-0.298,0.01-0.596,0.021-0.895,0.033
	c-0.158,0.316-0.314,0.633-0.469,0.95c-0.176-0.005-0.352-0.01-0.527-0.014c0.547-1.458,1.12-2.913,1.717-4.364
	c1.194-0.146,2.382-0.272,3.565-0.38c-0.186,0.453-0.368,0.906-0.549,1.359c1.603,2.292,3.206,4.583,4.809,6.875
	c0.35,0.5,1.005,0.633,1.962,0.419c0.479-1.115,0.973-2.227,1.483-3.335c-1.443-2.213-2.887-4.426-4.331-6.639
	c-0.437-0.078-0.875-0.153-1.314-0.226c0.442-1.081,0.898-2.16,1.368-3.237c1.169-0.051,2.333-0.084,3.49-0.101
	c-0.19,0.44-0.379,0.881-0.564,1.322c1.576,2.556,3.152,5.112,4.729,7.668c0.177,0.287,0.668,0.362,1.47,0.238
	c0.123-0.232,0.246-0.463,0.371-0.695c0.159,0.022,0.318,0.045,0.478,0.068C30.006,37.991,29.492,39.267,28.999,40.546
	L28.999,40.546z"/>
<path fill="none" d="M42.885,32.303c-0.983-0.043-1.733-0.232-2.246-0.583c-0.513-0.35-0.981-0.951-1.401-1.804
	c-1.117-2.266-2.233-4.533-3.35-6.799c-0.705-0.091-1.412-0.177-2.123-0.256c-0.578,0.945-1.143,1.893-1.695,2.845
	c1.23,2.312,2.461,4.624,3.692,6.936c0.46,0.149,0.918,0.3,1.375,0.454c-0.461,1.038-0.907,2.077-1.338,3.119
	c-1.123-0.119-2.253-0.221-3.392-0.306c0.132-0.468,0.268-0.936,0.405-1.403c-1.334-2.361-2.668-4.722-4.002-7.083
	c-0.27-0.477-0.78-0.734-1.537-0.761c-0.125,0.214-0.248,0.428-0.371,0.642c-0.171-0.029-0.343-0.058-0.515-0.086
	c0.531-1.271,1.083-2.54,1.654-3.805c1.857-0.177,3.108,0.39,3.771,1.639c0.657-1.133,1.24-2.148,1.742-3.05
	c0.501-0.901,0.926-1.679,1.264-2.336c1.119,0.174,2.229,0.363,3.331,0.565c0.357-0.582,0.719-1.163,1.085-1.742
	c0.167,0.047,0.335,0.096,0.502,0.144c-0.142,0.399-0.273,0.816-0.394,1.252S39.107,20.766,39,21.222
	c1.168,2.526,2.336,5.051,3.503,7.577c0.314,0.268,0.766,0.421,1.351,0.464c0.179-0.229,0.359-0.458,0.54-0.687
	c0.154,0.043,0.308,0.086,0.461,0.13C44.177,29.9,43.521,31.099,42.885,32.303L42.885,32.303z"/>
<path fill="none" d="M57.693,23.275c-1.823,1.297-3.221,2.712-4.2,4.2c-2.205-0.44-4.535-0.363-6.937,0.255
	c0.415-0.774,0.417-1.668-0.007-2.686c-0.976-2.336-1.951-4.671-2.927-7.007c0.39-0.292,0.818-0.651,1.285-1.076
	c0.467-0.424,0.986-0.919,1.56-1.483c-1.862-0.159-3.742-0.277-5.639-0.354c-0.396-0.924-0.793-1.849-1.19-2.773
	c4.606,0.126,9.117,0.496,13.516,1.087c0.17-0.558,0.555-1.07,1.154-1.527c-0.055,0.514-0.011,0.982,0.127,1.406
	C55.522,16.638,56.607,19.957,57.693,23.275L57.693,23.275z M51.44,16.016c-1.144-0.163-2.296-0.311-3.456-0.443
	c-0.326,0.362-0.65,0.726-0.971,1.091c1.049,2.697,2.098,5.394,3.146,8.09c1.426-0.14,2.847-0.254,4.262-0.342
	C53.428,21.613,52.435,18.814,51.44,16.016L51.44,16.016z"/>
<path fill="none" d="M69.582,22.143c-1.633-0.331-2.657-1.235-3.043-2.762c-1.312,1.557-2.579,3.135-3.799,4.73
	c-0.057,0.018-0.113,0.036-0.17,0.054c-2.004-0.836-3.233-1.847-3.625-3.106c-0.582-1.86-0.007-4.101,1.889-6.663
	c-0.948-1.098-1.911-2.188-2.888-3.268c0.165-0.042,0.331-0.083,0.496-0.125c1.428-0.341,2.601-1.124,3.554-2.369
	c1.928-0.031,3.845-0.021,5.751,0.031c0.303-0.314,0.607-0.627,0.914-0.94c0.034,0.036,0.069,0.071,0.103,0.107
	c-0.443,0.912-0.691,1.815-0.753,2.706c0.615,2.717,1.231,5.435,1.847,8.152c0.282,0.478,0.682,0.72,1.201,0.729
	c0.19-0.144,0.381-0.286,0.573-0.429c0.149,0.064,0.298,0.128,0.447,0.192C71.227,20.161,70.395,21.147,69.582,22.143z
	 M64.496,11.28c-1.944-0.066-3.901-0.089-5.871-0.067c0.864,0.996,1.716,2,2.557,3.01c1.4,0.13,2.791,0.283,4.172,0.458
	C65.067,13.547,64.782,12.414,64.496,11.28z M65.53,15.228c-1.393-0.194-2.797-0.366-4.21-0.515
	c-0.406,1.278-0.46,2.387-0.189,3.325c0.402,1.389,1.46,2.455,3.127,3.247c0.69-0.912,1.394-1.818,2.113-2.718
	C66.091,17.454,65.811,16.341,65.53,15.228z"/>
<path fill="none" d="M83.317,14.021c-1.049,1.299-2.472,2.523-4.253,3.71c-0.373,0.258-0.809,0.566-1.305,0.926
	c-0.497,0.361-1.054,0.773-1.669,1.241c-1.417,1.234-2.026,2.223-1.884,2.93c0.022,0.05,0.043,0.1,0.065,0.149
	c0.117,0.584,0.509,0.945,1.171,1.089c0.542,0.126,1.137,0.125,1.792-0.001c0.881-0.17,1.55-0.474,2.016-0.923
	c0.57-0.662,1.011-1.015,1.309-1.063c0.183-0.03,0.332,0.021,0.445,0.155c0.003,0.021,0.038,0.102,0.106,0.242
	c0.068,0.463-0.368,0.907-1.296,1.347c-0.755,0.367-1.376,0.6-1.871,0.693c-0.158,0.03-0.315,0.06-0.473,0.09
	c-2.155,0.417-3.416,0.088-3.8-1.072c-0.017-0.083-0.034-0.167-0.051-0.25c-0.128-0.625,0.134-1.59,0.824-2.887
	c0.718-1.281,1.07-2.053,1.019-2.326c-0.511-2.773-1.022-5.546-1.534-8.319c-0.093-0.502-0.484-0.935-1.184-1.291
	c-0.358,0.323-0.715,0.648-1.069,0.975c-0.166-0.105-0.331-0.211-0.497-0.317c1.032-1.139,2.088-2.267,3.169-3.382
	c1.776,0.401,2.771,1.393,3.014,2.926c1.525-1.406,3.094-2.787,4.706-4.14c1.75,1.144,2.701,2.734,2.914,4.723
	C85.158,10.876,84.58,12.459,83.317,14.021L83.317,14.021L83.317,14.021z M79.705,7.408c-0.786,0.691-1.56,1.389-2.324,2.093
	c0.413,2.575,0.826,5.149,1.238,7.724c0.974-0.924,1.793-1.947,2.453-3.08c0.712-1.29,1.013-2.491,0.867-3.611
	C81.759,9.142,81.023,8.09,79.705,7.408L79.705,7.408L79.705,7.408z"/>
<path fill="none" d="M117.354,19.488c-0.832-0.562-1.373-1.151-1.614-1.781c-0.225-0.562-0.288-1.331-0.183-2.305
	c0.271-2.53,0.543-5.061,0.815-7.591c-0.5-0.476-1.006-0.949-1.516-1.419c-0.961,0.457-1.913,0.925-2.855,1.402
	c-0.205,2.633-0.409,5.267-0.613,7.9c0.284,0.387,0.565,0.775,0.843,1.164c-0.901,0.603-1.791,1.215-2.667,1.836
	c-0.858-0.744-1.73-1.479-2.616-2.206c0.373-0.312,0.748-0.623,1.125-0.932c0.147-2.734,0.293-5.467,0.44-8.201
	c0.025-0.467-0.455-1.021-1.457-1.644c-1.042,0.581-2.071,1.173-3.087,1.777c-0.06,2.599-0.119,5.197-0.178,7.796
	c0.316,0.37,0.629,0.741,0.94,1.114c-0.89,0.653-1.768,1.316-2.632,1.988c-0.862-0.692-1.737-1.375-2.625-2.049
	c0.319-0.333,0.641-0.665,0.964-0.996c-0.004-2.738-0.007-5.476-0.011-8.214c0-0.575-0.32-1.065-0.965-1.465
	C99.259,5.78,99.055,5.9,98.851,6.02c-0.117-0.116-0.234-0.231-0.351-0.347c1.016-0.814,2.049-1.618,3.098-2.41
	c1.693,0.76,2.502,1.917,2.466,3.428c1.875-1.083,3.793-2.127,5.751-3.13c1.22,1.02,1.96,2.205,2.241,3.531
	c1.227-0.623,2.98-1.566,5.322-2.766c0.807,0.783,1.601,1.574,2.382,2.37c0.57-0.286,1.144-0.568,1.721-0.847
	c0.125,0.137,0.25,0.275,0.374,0.413c-0.178,0.145-0.349,0.286-0.511,0.423c-0.163,0.137-0.318,0.27-0.466,0.398
	c-0.208,0.185-0.393,0.352-0.555,0.5c-0.162,0.149-0.304,0.29-0.424,0.423c-0.365,2.776-0.731,5.552-1.096,8.328
	c0.141,0.407,0.453,0.796,0.933,1.169c0.243-0.093,0.486-0.185,0.73-0.276c0.127,0.127,0.254,0.255,0.38,0.383
	C119.666,18.22,118.501,18.847,117.354,19.488L117.354,19.488z"/>
<path fill="none" d="M128.148,21.407c-1.572-1.614-3.537-2.871-5.858-3.72c0.711-0.354,1.168-1.103,1.36-2.258
	c0.412-2.489,0.824-4.977,1.236-7.465c2.104-0.1,4.059-0.57,5.896-1.431c2.15,1.801,3.971,3.028,5.556,3.648
	c-0.833,3.364-1.666,6.728-2.498,10.092C131.656,20.262,129.751,20.653,128.148,21.407L128.148,21.407L128.148,21.407z
	 M132.458,10.812c-1.332-0.799-2.681-1.578-4.048-2.336c-0.549,2.885-1.098,5.77-1.647,8.654c0.376,0.229,0.757,0.461,1.143,0.696
	c0.385,0.235,0.787,0.477,1.204,0.723c0.569,0.347,1.051,0.624,1.45,0.828C131.192,16.522,131.825,13.667,132.458,10.812
	L132.458,10.812z"/>
<path fill="none" d="M147.171,15.547c-0.528-0.857-1.068-1.711-1.619-2.562c-0.577,0.139-1.152,0.281-1.725,0.427
	c-0.806,2.63-1.611,5.259-2.417,7.889c0.496,0.634,0.985,1.27,1.466,1.909c0.4-0.097,0.802-0.192,1.205-0.285
	c0.098,0.17,0.195,0.34,0.292,0.51c-1.303,0.41-2.59,0.841-3.862,1.292c-0.967-1.395-2.21-2.635-3.726-3.698
	c0.748-0.268,1.269-0.908,1.555-1.932c0.573-2.057,1.146-4.114,1.719-6.171c0.148-0.532-0.016-1.092-0.502-1.678
	c-0.242,0.051-0.484,0.102-0.726,0.154c-0.107-0.152-0.214-0.305-0.321-0.457c1.264-0.469,2.542-0.92,3.834-1.353
	c0.687,0.569,1.135,1.049,1.349,1.431c0.296,0.476,0.396,1.045,0.302,1.707c1.486-0.37,2.989-0.715,4.507-1.034
	c0.57,1.008,1.126,2.019,1.668,3.032C149.164,14.99,148.164,15.263,147.171,15.547z"/>
<path fill="none" d="M156.928,31.585c-0.577-0.828-0.897-1.557-0.949-2.192c-0.052-0.635,0.11-1.389,0.493-2.262
	c1.016-2.317,2.032-4.634,3.048-6.952c-0.366-0.63-0.737-1.259-1.114-1.886c-1.064,0.117-2.122,0.248-3.173,0.392
	c-0.98,2.438-1.961,4.876-2.941,7.314c0.17,0.466,0.337,0.933,0.501,1.4c-1.06,0.271-2.111,0.556-3.153,0.854
	c-0.595-0.985-1.205-1.966-1.831-2.942c0.429-0.184,0.86-0.366,1.293-0.545c0.954-2.552,1.908-5.105,2.862-7.657
	c0.193-0.516,0.075-1.091-0.363-1.721c-0.235,0.033-0.469,0.066-0.703,0.1c-0.082-0.157-0.164-0.314-0.247-0.472
	c1.268-0.361,2.549-0.705,3.842-1.029c1.262,1.397,1.603,2.766,1.071,4.081c1.25-0.172,2.37-0.329,3.356-0.481
	c0.985-0.152,1.831-0.29,2.534-0.423c0.559,1.019,1.104,2.041,1.635,3.066c0.66-0.07,1.323-0.134,1.989-0.194
	c0.068,0.167,0.136,0.333,0.204,0.499c-0.39,0.131-0.786,0.283-1.19,0.455c-0.405,0.172-0.812,0.356-1.222,0.551
	c-1.18,2.52-2.359,5.039-3.54,7.559c-0.007,0.423,0.158,0.886,0.49,1.391c0.284,0.004,0.569,0.009,0.854,0.016
	c0.063,0.152,0.126,0.305,0.189,0.458C159.541,31.149,158.228,31.356,156.928,31.585L156.928,31.585z"/>
<path fill="none" d="M170.768,20.346c-0.154-0.088-0.309-0.175-0.464-0.262c0.782-0.796,1.569-1.588,2.362-2.375
	c0.897,0.512,1.79,1.034,2.678,1.566C173.802,19.606,172.277,19.963,170.768,20.346L170.768,20.346z M163.81,35.227
	c-1.081-1.495-1.286-2.814-0.554-3.981c0.097-0.164,0.194-0.327,0.292-0.491c1.25-2.458,2.5-4.917,3.75-7.375
	c-0.188-0.477-0.378-0.954-0.572-1.431c1.155-0.109,2.317-0.202,3.486-0.278c0.592,1.113,1.168,2.229,1.727,3.35
	c-0.43,0.087-0.858,0.177-1.286,0.269c-1.394,2.571-2.787,5.142-4.181,7.713c-0.094,0.435,0.046,0.908,0.415,1.423
	c0.253,0.004,0.506,0.009,0.76,0.015c0.061,0.147,0.121,0.295,0.18,0.442C166.477,34.973,165.138,35.088,163.81,35.227z"/>
<path fill="none" d="M177.435,44.278c-0.439-0.938-0.638-1.723-0.584-2.362c0.053-0.639,0.342-1.352,0.87-2.138
	c1.403-2.087,2.806-4.174,4.208-6.261c-0.261-0.697-0.527-1.395-0.799-2.09c-1.083-0.099-2.163-0.182-3.237-0.25
	c-1.387,2.214-2.774,4.428-4.162,6.641c0.092,0.495,0.181,0.99,0.267,1.484c-1.105,0.055-2.203,0.126-3.293,0.214
	c-0.429-1.092-0.875-2.182-1.336-3.27c0.459-0.097,0.92-0.191,1.382-0.283c1.38-2.332,2.76-4.664,4.14-6.996
	c0.279-0.472,0.257-1.062-0.074-1.771c-0.24-0.015-0.479-0.028-0.719-0.041c-0.056-0.171-0.111-0.343-0.167-0.514
	c1.327-0.106,2.663-0.191,4.009-0.255c1.027,1.632,1.139,3.054,0.389,4.247c1.278,0.081,2.423,0.151,3.435,0.199
	c1.011,0.048,1.88,0.083,2.605,0.094c0.389,1.122,0.764,2.244,1.125,3.367c0.673,0.065,1.347,0.137,2.023,0.214
	c0.041,0.179,0.081,0.357,0.121,0.537c-0.412,0.05-0.833,0.119-1.267,0.207c-0.434,0.088-0.873,0.187-1.315,0.296
	c-1.6,2.254-3.2,4.509-4.8,6.763c-0.078,0.418,0.01,0.91,0.258,1.478c0.284,0.062,0.568,0.126,0.853,0.19
	c0.038,0.164,0.076,0.328,0.113,0.492C180.122,44.379,178.774,44.316,177.435,44.278z"/>
<path fill="none" d="M197.952,46.761c-1.683,1.863-3.366,3.726-5.05,5.589c-0.463,0.513-0.748,1.519-0.884,3.006
	c-0.091,1.475-0.267,2.329-0.495,2.572c-0.028,0.031-0.057,0.061-0.086,0.092c-0.592,0.442-1.678,0.311-3.258-0.331
	c-0.666-0.272-1.331-0.536-1.996-0.792c-1.095-1.646-2.125-2.872-3.05-3.69c-1.019-0.9-2.261-1.675-3.713-2.303
	c-0.083-0.313-0.168-0.627-0.253-0.94c1.8-0.198,3.621-0.352,5.461-0.461c-0.458-1.313-0.938-2.625-1.439-3.934
	c2.081-2.744,4.161-5.488,6.241-8.232c0.434,0.249,0.901,0.487,1.405,0.718c0.503,0.231,1.052,0.463,1.646,0.699
	c0.131,0.058,0.451,0.181,0.959,0.374c0.508,0.193,1.204,0.456,2.089,0.801c1.137,2.007,2.227,4.035,3.27,6.083
	c1.082,0.373,2.166,0.763,3.251,1.171c-0.682,0.722-1.364,1.443-2.046,2.165l0,0C199.329,48.477,198.645,47.614,197.952,46.761
	L197.952,46.761z M195.331,44.129c-1.033-1.475-2.09-2.931-3.174-4.367c-1.857,2.328-3.715,4.656-5.573,6.984
	c0.348,0.897,0.686,1.796,1.014,2.695c1.018,0.027,2.04,0.068,3.067,0.124C192.221,47.753,193.776,45.941,195.331,44.129z
	 M189.053,53.391c0.048-1.223,0.353-2.295,0.933-3.214c-2.447-0.016-4.864,0.048-7.247,0.188c0.647,0.388,1.492,1.035,2.521,1.959
	c1.365,1.227,2.654,2.816,3.824,4.759c0.103-0.075,0.205-0.15,0.308-0.226C189.158,55.308,189.034,54.151,189.053,53.391
	L189.053,53.391L189.053,53.391z"/>
</svg>
