<?xml version="1.0" encoding="utf-8"?>
<!-- Generator: Adobe Illustrator 15.0.0, SVG Export Plug-In . SVG Version: 6.00 Build 0)  -->
<!DOCTYPE svg PUBLIC "-//W3C//DTD SVG 1.1//EN" "http://www.w3.org/Graphics/SVG/1.1/DTD/svg11.dtd">
<svg version="1.1" id="Layer_1" xmlns="http://www.w3.org/2000/svg" xmlns:xlink="http://www.w3.org/1999/xlink" x="0px" y="0px"
	 width="172.08px" height="47.04px" viewBox="0 0 172.08 47.04" enable-background="new 0 0 172.08 47.04" xml:space="preserve">
<path fill="#FFFFFF" d="M8.993,17.012c-0.995-0.136-1.995-0.286-2.999-0.451c-0.959-2.157-2.037-3.962-3.287-5.444
	c0.957,0.117,1.779-0.224,2.473-1.003C7.066,8,8.952,5.884,10.838,3.77c0.895,0.348,1.799,0.602,2.707,0.763
	c0.907,0.161,1.821,0.246,2.74,0.255c0.581,1.334,1.191,2.664,1.831,3.987c-0.861,0.212-1.728,0.415-2.602,0.608
	c-0.607-1.157-1.193-2.32-1.756-3.488c-2.021,2.42-4.042,4.84-6.063,7.26c0.67,1.153,1.36,2.299,2.07,3.437
	c0.713,0.089,1.424,0.17,2.132,0.245c0.041,0.18,0.083,0.36,0.125,0.541C10.997,17.27,9.988,17.148,8.993,17.012L8.993,17.012z"/>
<path fill="#FFFFFF" d="M18.067,25.107c-1.243-2.27-2.891-4.375-4.969-6.396c0.918,0.047,1.729-0.434,2.439-1.424
	c1.532-2.133,3.064-4.267,4.597-6.4c1.997,0.778,4.03,1.033,6.051,0.773c1.276,2.377,2.651,4.054,4.001,5.022
	c-1.786,3.132-3.572,6.264-5.358,9.396C22.388,25.396,20.146,25.058,18.067,25.107L18.067,25.107z M26.209,16.291
	c-1.03-1.172-2.033-2.362-3.008-3.567c-1.703,2.539-3.405,5.078-5.107,7.616c0.312,0.385,0.634,0.772,0.964,1.162
	c0.329,0.389,0.68,0.788,1.051,1.195c0.503,0.566,0.946,1.023,1.323,1.374C23.024,21.477,24.617,18.884,26.209,16.291L26.209,16.291
	z"/>
<path fill="#FFFFFF" d="M46.834,38.225c-0.868-0.759-1.364-1.493-1.503-2.19c-0.135-0.626-0.032-1.418,0.302-2.377
	c0.867-2.49,1.733-4.981,2.6-7.472c-0.373-0.58-0.738-1.161-1.098-1.744c-1.033,0.244-2.076,0.474-3.129,0.688
	c-0.999,2.549-1.998,5.097-2.997,7.646c0.195,0.475,0.393,0.95,0.595,1.425c-1.168,0.321-2.35,0.626-3.544,0.913
	c-0.736-1.052-1.452-2.11-2.147-3.174c0.52-0.151,1.037-0.305,1.551-0.462c1.118-2.608,2.235-5.217,3.353-7.825
	c0.191-0.447-0.067-1.137-0.749-2.078c-1.177,0.204-2.366,0.388-3.567,0.552c-1.161,2.433-2.323,4.865-3.484,7.298
	c0.176,0.494,0.354,0.988,0.537,1.482c-1.222,0.226-2.456,0.432-3.702,0.619c-0.629-1.086-1.239-2.176-1.828-3.27
	c0.496-0.132,0.989-0.267,1.481-0.405c1.305-2.523,2.61-5.046,3.915-7.569c0.274-0.531,0.22-1.124-0.148-1.782
	c-0.238,0.015-0.476,0.03-0.714,0.044c-0.044-0.16-0.088-0.319-0.132-0.479c1.295-0.262,2.574-0.547,3.837-0.855
	c1.096,1.391,1.339,2.782,0.666,4.201c2.181-0.286,4.323-0.638,6.422-1.053c0.74,1.346,1.058,2.706,0.921,4.094
	c1.359-0.288,3.296-0.786,5.734-1.583c0.559,0.929,1.135,1.854,1.729,2.774c0.6-0.208,1.195-0.422,1.786-0.64
	c0.095,0.154,0.19,0.308,0.285,0.461c-0.192,0.129-0.377,0.252-0.556,0.373c-0.179,0.12-0.35,0.237-0.514,0.349
	c-0.231,0.162-0.439,0.307-0.623,0.436c-0.184,0.129-0.348,0.253-0.489,0.371c-0.868,2.768-1.735,5.536-2.603,8.304
	c0.088,0.442,0.374,0.897,0.861,1.362c0.287-0.054,0.573-0.109,0.859-0.165c0.126,0.15,0.252,0.301,0.378,0.451
	C49.711,37.397,48.282,37.824,46.834,38.225z"/>
<path fill="#FFFFFF" d="M59.039,23.844c-0.151-0.037-0.302-0.074-0.452-0.111c0.557-1.021,1.105-2.044,1.645-3.071
	c0.832,0.199,1.666,0.389,2.501,0.567C61.53,22.121,60.299,22.993,59.039,23.844L59.039,23.844z M55.683,40.623
	c-1.647-1.208-2.185-2.509-1.684-3.857c0.064-0.188,0.128-0.377,0.192-0.565c0.741-2.781,1.481-5.562,2.221-8.343
	c-0.262-0.42-0.521-0.842-0.775-1.264c1.062-0.412,2.111-0.838,3.145-1.279c0.735,0.904,1.49,1.801,2.264,2.69
	c-0.368,0.236-0.739,0.471-1.112,0.704c-0.688,2.975-1.377,5.95-2.066,8.924c0.031,0.459,0.321,0.886,0.875,1.276
	c0.268-0.078,0.535-0.156,0.801-0.236c0.111,0.125,0.224,0.249,0.336,0.374C58.502,39.594,57.103,40.121,55.683,40.623z"/>
<path fill="#FFFFFF" d="M73.778,43.58c-0.942-0.592-1.546-1.197-1.823-1.802c-0.278-0.605-0.357-1.401-0.247-2.386
	c0.292-2.617,0.584-5.234,0.876-7.851c-0.51-0.488-1.013-0.979-1.509-1.472c-0.94,0.461-1.893,0.911-2.858,1.349
	c-0.408,2.702-0.816,5.404-1.225,8.106c0.303,0.423,0.609,0.845,0.919,1.266c-1.066,0.565-2.148,1.116-3.245,1.653
	c-0.92-0.863-1.821-1.736-2.702-2.619c0.438-0.266,0.874-0.533,1.307-0.804c0.51-2.786,1.021-5.572,1.531-8.358
	c0.103-0.563-0.101-1.113-0.601-1.655c-0.217,0.083-0.435,0.166-0.653,0.247c-0.099-0.142-0.196-0.285-0.294-0.427
	c1.157-0.617,2.294-1.252,3.41-1.904c1.355,1.074,1.953,2.323,1.735,3.785c1.135-0.524,2.122-1.029,2.97-1.504
	c0.847-0.474,1.554-0.907,2.128-1.291c0.752,0.787,1.521,1.566,2.306,2.337c0.557-0.331,1.109-0.665,1.656-1.004
	c0.113,0.129,0.226,0.258,0.34,0.387c-0.288,0.291-0.579,0.603-0.875,0.935c-0.296,0.333-0.595,0.675-0.897,1.027
	c-0.232,2.888-0.465,5.776-0.697,8.664c0.154,0.41,0.502,0.791,1.046,1.137c0.292-0.112,0.583-0.226,0.874-0.34
	c0.127,0.118,0.255,0.236,0.383,0.354C76.373,42.154,75.087,42.877,73.778,43.58L73.778,43.58z"/>
<path fill="#FFFFFF" d="M80.472,29.542c-0.209-0.229-0.418-0.458-0.625-0.688c1.126-0.809,1.68-1.512,1.698-2.084
	c0.018-0.529-0.493-1.324-1.486-2.405c0.917-0.752,1.813-1.516,2.69-2.291c0.11,0.113,0.238,0.242,0.383,0.388
	c0.145,0.146,0.318,0.331,0.521,0.553c0.157,0.156,0.367,0.357,0.629,0.601c0.262,0.244,0.578,0.531,0.95,0.861
	C84.36,26.569,82.788,28.288,80.472,29.542L80.472,29.542z"/>
<path fill="#FFFFFF" d="M113.156,38.292c-2.177,1.163-3.985,2.385-5.422,3.723c-2.412-0.86-4.958-1.339-7.694-1.471
	c0.682-0.638,0.938-1.53,0.784-2.665c-0.354-2.609-0.707-5.219-1.06-7.829c0.426-0.167,0.898-0.393,1.414-0.679
	c0.517-0.286,1.089-0.634,1.713-1.048c-1.679-0.644-3.324-1.326-4.933-2.043c-0.128-1.039-0.256-2.078-0.384-3.117
	c3.743,1.706,7.688,3.212,11.816,4.488c0.204-0.542,0.599-1.003,1.183-1.389c-0.076,0.516-0.062,0.999,0.046,1.449
	C111.465,31.238,112.311,34.765,113.156,38.292L113.156,38.292z M107.496,29.976c-1.086-0.378-2.159-0.772-3.219-1.182
	c-0.361,0.287-0.725,0.571-1.091,0.854c0.496,2.967,0.993,5.935,1.489,8.902c1.551,0.195,3.114,0.36,4.69,0.494
	C108.743,36.021,108.12,32.999,107.496,29.976L107.496,29.976z"/>
<path fill="#FFFFFF" d="M122.956,38.262c-2.495-0.56-5.101-0.716-7.876-0.501c0.591-0.647,0.723-1.56,0.41-2.732
	c-0.674-2.524-1.348-5.049-2.022-7.574c1.799-0.966,3.241-2.304,4.293-3.969c2.595,0.607,4.738,0.679,6.332,0.306
	c1.276,3.364,2.553,6.728,3.829,10.092C125.86,35.251,124.207,36.691,122.956,38.262L122.956,38.262z M121.301,26.486
	c-1.536-0.001-3.061-0.034-4.573-0.1c0.876,2.915,1.752,5.831,2.628,8.746c0.483,0.021,0.975,0.036,1.474,0.045
	c0.499,0.01,1.019,0.011,1.559,0.001c0.742-0.003,1.366-0.033,1.868-0.084C123.271,32.226,122.286,29.356,121.301,26.486
	L121.301,26.486z"/>
<path fill="#FFFFFF" d="M146.574,28.174c-2.366,0.343-4.02,0.714-5,1.207c-1.129,0.566-2.096,1.5-2.936,2.816
	c-2.223-0.187-4.806,0.007-7.781,0.497c0.506-0.794,0.528-1.723,0.082-2.781c-0.998-2.371-1.996-4.742-2.994-7.114
	c-1.479-0.662-2.363-1.424-2.694-2.242c-0.528-1.314,0.116-2.932,1.793-4.919c0.09,0.058,0.18,0.115,0.271,0.172
	c-0.548,1.1-0.708,1.952-0.447,2.562c0.097,0.223,0.764,0.69,2.036,1.371c1.277,0.63,2.131,1.36,2.527,2.224
	c1.102-1.708,2.145-3.432,3.13-5.168c1.828,0.25,3.109,0.87,3.804,1.93c0.989-1.829,1.916-3.67,2.782-5.519
	c2.146,0.258,3.541,0.793,4.126,1.709c1.718,2.686,3.436,5.371,5.154,8.057C148.855,24.485,147.582,26.204,146.574,28.174
	L146.574,28.174L146.574,28.174z M142.796,17.201c-0.205-0.342-0.629-0.569-1.266-0.69c-0.112-0.038-0.244-0.072-0.394-0.101
	c-0.151-0.029-0.343-0.067-0.577-0.114c-0.562,1.062-1.144,2.119-1.747,3.172c1.233,2.262,2.465,4.524,3.698,6.786
	c0.479-0.101,0.971-0.212,1.476-0.334c0.504-0.121,1.028-0.269,1.571-0.444c0.35-0.119,0.964-0.309,1.845-0.585
	C145.867,22.327,144.332,19.764,142.796,17.201L142.796,17.201z M135.573,21.03c-0.129-0.256-0.325-0.444-0.585-0.564
	c-0.052-0.049-0.556-0.221-1.496-0.535c-0.559,0.984-1.135,1.964-1.73,2.939c1.039,2.27,2.079,4.54,3.118,6.809
	c1.199-0.071,2.772-0.274,4.724-0.657C138.26,26.358,136.917,23.694,135.573,21.03z"/>
<path fill="#FFFFFF" d="M164.728,16.092c-1.157,0.266-2.06,0.273-2.709,0.043c-0.65-0.229-1.284-0.737-1.907-1.517
	c-1.656-2.071-3.312-4.142-4.969-6.213c-0.744,0.022-1.485,0.037-2.222,0.042c-0.393,1.005-0.801,2.009-1.227,3.011
	c1.628,2.215,3.256,4.431,4.884,6.646c0.536,0.084,1.074,0.166,1.614,0.243c-0.412,1.167-0.844,2.332-1.296,3.496
	c-1.322,0.04-2.633,0.057-3.935,0.051c0.142-0.5,0.281-0.999,0.417-1.499c-1.61-2.348-3.221-4.695-4.831-7.043
	c-0.326-0.475-0.875-0.722-1.643-0.754c-0.105,0.213-0.211,0.426-0.318,0.638c-0.176-0.032-0.353-0.064-0.528-0.097
	c0.434-1.257,0.842-2.515,1.225-3.773c1.804-0.199,3.161,0.261,4.043,1.458c0.493-1.185,0.889-2.253,1.201-3.202
	c0.312-0.947,0.547-1.766,0.715-2.455c1.147,0.015,2.304,0.009,3.47-0.016c0.195-0.642,0.384-1.283,0.567-1.924
	c0.181,0.009,0.362,0.017,0.543,0.025c-0.015,0.418-0.018,0.853-0.009,1.305c0.009,0.453,0.022,0.915,0.041,1.385
	c1.897,2.221,3.795,4.441,5.692,6.661c0.415,0.178,0.96,0.194,1.634,0.042c0.147-0.294,0.293-0.588,0.438-0.883
	c0.185-0.009,0.369-0.02,0.554-0.03C165.72,13.186,165.238,14.64,164.728,16.092L164.728,16.092z"/>
</svg>
