<?xml version="1.0" encoding="utf-8"?>
<!-- Generator: Adobe Illustrator 15.0.0, SVG Export Plug-In . SVG Version: 6.00 Build 0)  -->
<!DOCTYPE svg PUBLIC "-//W3C//DTD SVG 1.1//EN" "http://www.w3.org/Graphics/SVG/1.1/DTD/svg11.dtd">
<svg version="1.1" xmlns="http://www.w3.org/2000/svg" xmlns:xlink="http://www.w3.org/1999/xlink" x="0px" y="0px"
	 width="203.125px" height="61.607px" viewBox="0 0 203.125 61.607" enable-background="new 0 0 203.125 61.607"
	 xml:space="preserve">
<g id="Layer_2">
</g>
<g id="Layer_1">
	<g>
		<g>
			<path fill="#FFFFFF" d="M19.85,50.077c-0.043,0.2-0.095,0.526-0.145,0.976c-0.051,0.451,0.034,1.485-0.146,1.724
				c-0.225,0.299-1.951,0.659-3.52,1.178c0.384,0.381,0.577,0.571,0.961,0.951c0.562,0.568,1.322,1.033,2.223,1.422
				c0.645,0.278,2.967,0.705,2.967,0.705c0.016,0.069-1.881,0.846-2.649,0.99c-0.103,0.019-0.329,0.045-0.648,0.036
				c-0.321-0.009-1.21-0.104-1.304-0.011c-0.073,0.073-0.019,0.65-0.051,0.907c-0.033,0.256-0.042,0.471-0.06,0.606
				c-0.068,0.496-0.584,1.357-0.584,1.357c-0.116-0.026-0.982-2.602-2.194-3.488c-0.812-0.597-1.22-0.895-2.033-1.491
				c-0.286,0.138-0.596,0.371-0.933,0.702c-0.247,0.243-0.369,0.364-0.615,0.609c-0.353-0.266-0.53-0.4-0.883-0.667
				c0.159-0.406,0.476-1.039,0.964-1.894c-2.728-2.136-4.092-3.205-6.82-5.341c-0.897-0.703-1.725-0.931-2.485-0.68
				c-0.119,0.433-0.177,0.647-0.292,1.08c-0.233,0.062-0.35,0.094-0.583,0.157c0.125-1.726,0.205-2.592,0.397-4.331
				c1.923-0.72,3.616-0.601,5.082,0.293c0.183-2.135,0.301-3.21,0.59-5.366c2.86-1.336,5.36-0.886,7.502,1.176
				c2.397,2.309,3.595,3.462,5.993,5.771C20.305,48.215,20.063,49.101,19.85,50.077z M11.082,43.472
				c-0.149-0.135-0.362-0.222-0.638-0.265c-0.275-0.042-0.577-0.056-0.898-0.041c-0.321,0.015-0.648,0.068-0.978,0.156
				c-0.329,0.089-0.62,0.192-0.87,0.313c-0.174,1.209-0.252,1.812-0.393,3.016c2.658,2.222,3.988,3.334,6.646,5.556
				c0.759-0.422,1.503-0.805,2.233-1.149c0.729-0.345,1.466-0.666,2.203-0.968C15.466,47.443,14.004,46.119,11.082,43.472z"/>
			<path fill="#FFFFFF" d="M34.069,42.174c-1.972,0.017-3.481-0.529-4.486-1.716c-0.848,2.375-1.23,3.564-1.915,5.937
				c-1.942,0.203-3.59-0.333-4.912-1.687c-2.754-2.821-4.132-4.231-6.886-7.052c-0.42,0.003-0.631,0.006-1.053,0.013
				c-0.163,0.388-0.243,0.583-0.402,0.971c-0.251-0.011-0.376-0.018-0.627-0.028c0.5-1.792,0.769-2.689,1.349-4.482
				c1.664-0.147,2.491-0.207,4.131-0.301c-0.178,0.56-0.265,0.839-0.435,1.398c2.675,2.917,4.013,4.375,6.688,7.292
				c0.486,0.53,1.264,0.696,2.326,0.518c0.436-1.354,0.667-2.032,1.155-3.385c-2.401-2.837-3.603-4.255-6.004-7.093
				c-0.621-0.115-0.933-0.171-1.559-0.279c0.424-1.339,0.648-2.009,1.119-3.349c1.62-0.018,2.424-0.014,4.018,0.018
				c-0.189,0.548-0.283,0.821-0.465,1.369c2.615,3.294,3.922,4.941,6.537,8.236c0.245,0.309,0.813,0.411,1.697,0.325
				c0.123-0.283,0.184-0.423,0.309-0.705c0.219,0.038,0.328,0.057,0.546,0.096C34.712,39.833,34.487,40.614,34.069,42.174z"/>
			<path fill="#FFFFFF" d="M48.187,34.343c-1.072-0.108-1.914-0.355-2.52-0.76c-0.605-0.403-1.198-1.069-1.771-2
				c-1.826-2.968-2.739-4.453-4.564-7.421c-0.958-0.158-1.44-0.231-2.411-0.373c-0.642,1.177-0.954,1.767-1.554,2.949
				c2.023,3.014,3.037,4.521,5.061,7.535c0.637,0.22,0.951,0.333,1.581,0.56c-0.437,1.284-0.643,1.925-1.03,3.208
				c-1.508-0.23-2.27-0.334-3.811-0.517c0.093-0.58,0.143-0.87,0.245-1.451c-2.202-3.064-3.302-4.597-5.504-7.661
				c-0.372-0.517-0.987-0.812-1.853-0.871c-0.136,0.266-0.203,0.398-0.336,0.664c-0.24-0.046-0.359-0.066-0.599-0.111
				c0.52-1.584,0.797-2.379,1.384-3.963c2.094-0.115,4.479,1.901,4.489,1.901c0.18-0.011,1.127-2.228,1.583-3.167
				c0.456-0.938,0.844-1.752,1.148-2.44c1.534,0.283,2.292,0.436,3.793,0.76c0.399-0.729,0.604-1.093,1.019-1.819
				c0.23,0.071,0.345,0.107,0.574,0.18c-0.115,0.42-0.218,0.864-0.304,1.326s-0.162,0.934-0.229,1.417
				c1.9,3.319,2.85,4.979,4.75,8.298c0.375,0.306,0.886,0.495,1.526,0.577c0.2-0.281,0.298-0.421,0.5-0.701
				c0.206,0.066,0.311,0.1,0.516,0.167C49.161,32.111,48.825,32.855,48.187,34.343z"/>
			<path fill="#FFFFFF" d="M62.944,28.339c-1.084-0.327-2.087-1.227-3.002-2.711c-0.794,1.802-1.166,2.707-1.86,4.514
				c-2.421-0.331-5.957-0.173-5.978-0.199c-0.075-0.096,0.189-1.667-0.324-2.678c-1.771-3.486-2.655-5.228-4.425-8.714
				c-0.779,0.32-1.168,0.483-1.944,0.815c-0.339-0.641-0.51-0.961-0.849-1.602c0.787-0.337,1.182-0.502,1.973-0.828
				c-0.583-1.149-0.874-1.721-1.457-2.87c-0.36-0.71-2.533-1.605-2.533-1.605c0.001-0.031,2.172-0.264,3.133-0.081
				c0.219-0.104,0.329-0.153,0.549-0.256c0.693-1.54,3.211-3.108,3.211-3.108c0.024,0.036-1.183,2.334-0.561,3.663
				c1.145,2.446,1.717,3.67,2.862,6.116c1.274-2.239,1.952-3.353,3.386-5.563c1.973,0.79,2.941,1.2,4.842,2.055
				c-0.27,0.359-0.61,0.866-1.014,1.522s-1.431,2.327-1.373,2.452c0.116,0.253,2.286,0.968,3.056,1.719
				c0.152,0.148,0.386,0.409,0.656,0.788c0.271,0.378,0.607,0.858,0.985,1.438c0.606,0.928,1.201,1.603,1.795,1.996
				c0.218-0.217,0.328-0.324,0.548-0.54c0.234,0.125,0.351,0.188,0.584,0.313C64.265,26.312,63.813,26.986,62.944,28.339z
				 M54.13,16.386c-0.806,1.383-1.193,2.078-1.938,3.47c0.705,1.504,1.056,2.257,1.76,3.761c1.301-2.358,1.997-3.531,3.481-5.858
				C56.129,17.195,55.468,16.919,54.13,16.386z M55.801,22.166c-0.589,0.931-0.875,1.397-1.434,2.334
				c0.508,1.085,0.762,1.627,1.271,2.713c1.028,0.087,1.54,0.136,2.555,0.245c0.455-1.081,0.691-1.622,1.183-2.7
				C58.679,23.553,57.5,22.675,55.801,22.166z"/>
			<path fill="#FFFFFF" d="M84.6,23.426c-1.435-0.784-5.625-1.749-5.664-1.843c-0.051-0.123,0.606-1.576,0.376-2.669
				c-0.752-3.585-1.13-5.378-1.883-8.963c-0.819,0.141-1.229,0.213-2.046,0.366c-0.018-0.736-0.026-1.105-0.039-1.842
				c0.716-0.132,1.076-0.196,1.794-0.318c-0.298-1.423-0.448-2.135-0.745-3.558c1.345-0.784,2.713-1.887,4.148-3.309
				c1.709,0.093,2.56,0.152,4.251,0.293c-0.211,1.01-0.312,1.516-0.509,2.527c-1.483-0.083-2.229-0.117-3.723-0.163
				c0.249,1.431,0.372,2.146,0.621,3.576c1.228-0.175,1.844-0.254,3.075-0.403c-0.009,0.732-0.013,1.098-0.019,1.83
				c-1.099,0.135-1.647,0.208-2.744,0.363c0.697,4.012,1.044,6.018,1.741,10.029c1.173,0.495,1.754,0.749,2.896,1.27
				c0.436-0.454,0.656-0.681,1.102-1.131c0.185,0.151,0.276,0.226,0.459,0.377C86.411,21.27,85.792,21.985,84.6,23.426z"/>
			<path fill="#FFFFFF" d="M95.658,22.514c-0.887,0.078-6.738-2.317-6.738-2.317c-0.026-0.074,0.826-1.519,0.681-2.813
				c-0.375-3.349-0.562-5.021-0.937-8.37c2.091-0.715,4.656-3.122,5.556-3.247c1.306-0.182,4.843,2.096,6.604,2.298
				c0.034,4.629,0.051,6.944,0.085,11.573C98.767,20.267,96.296,22.458,95.658,22.514z M97.079,9.876
				c-1.863-0.564-2.807-0.831-4.717-1.333c0.312,3.909,0.467,5.863,0.779,9.772c0.434,0.138,0.872,0.278,1.313,0.419
				c0.44,0.141,0.905,0.282,1.375,0.429c0.647,0.202,1.195,0.365,1.639,0.47C97.313,15.73,97.235,13.779,97.079,9.876z"/>
			<path fill="#FFFFFF" d="M113.062,10.616c-0.871-0.912-1.312-1.365-2.22-2.263c-0.665,0.385-0.998,0.579-1.652,0.972
				c-0.237,3.671-0.354,5.507-0.591,9.179c0.761,0.638,1.136,0.96,1.874,1.609c0.447-0.269,0.673-0.403,1.126-0.667
				c0.16,0.183,0.239,0.275,0.398,0.459c-1.438,0.997-2.139,1.504-3.509,2.54c-1.256-1.205-4.506-2.859-4.506-2.859
				c-0.015-0.108,1.031-1.352,1.068-2.535c0.088-2.853,0.133-4.279,0.221-7.132c0.019-0.616-0.287-1.167-0.924-1.653
				c-0.278,0.151-0.416,0.226-0.693,0.378c-0.175-0.159-0.263-0.238-0.439-0.396c1.392-1.05,2.103-1.568,3.556-2.583
				c0.84,0.409,1.409,0.806,1.719,1.137c0.395,0.422,0.65,1.003,0.711,1.741c1.704-1.005,2.573-1.495,4.351-2.448
				c0.975,1.091,1.45,1.642,2.378,2.749C114.765,9.541,114.19,9.895,113.062,10.616z"/>
			<path fill="#FFFFFF" d="M137.039,25.349c-0.202,0.067-0.526,0.192-0.962,0.379c-0.437,0.187-1.314,0.787-1.644,0.752
				c-0.347-0.037-1.412-1.152-2.523-2.085c-0.189,0.484-0.285,0.724-0.474,1.208c-0.288,0.713-0.4,1.528-0.387,2.406
				c0.01,0.631,0.572,2.613,0.572,2.613c-0.064,0.06-1.555-1.022-1.984-1.52c-0.059-0.067-0.175-0.226-0.296-0.474
				c-0.122-0.249-0.412-0.966-0.517-0.998c-0.1-0.03-0.595,0.313-0.839,0.418c-0.244,0.104-0.44,0.202-0.572,0.257
				c-0.478,0.199-1.453,0.241-1.453,0.241c-0.028-0.088,1.948-2.058,2.261-3.425c0.213-0.918,0.319-1.376,0.53-2.294
				c-0.238-0.148-0.575-0.268-1.006-0.356c-0.315-0.065-0.474-0.097-0.79-0.16c0.099-0.402,0.149-0.604,0.248-1.006
				c0.426-0.084,1.119-0.163,2.085-0.223c0.832-3.149,1.248-4.724,2.08-7.873c0.273-1.036,0.148-1.779-0.381-2.23
				c-0.437,0.127-0.653,0.19-1.086,0.321c-0.147-0.146-0.223-0.219-0.371-0.365c1.593-0.774,2.403-1.15,4.052-1.879
				c1.424,1.1,2.011,2.449,1.795,4.014c2.018-0.934,3.047-1.383,5.15-2.244c2.42,1.51,3.074,3.643,2.068,6.309
				c-1.126,2.984-1.688,4.477-2.814,7.46C138.951,24.765,138.031,25.022,137.039,25.349z M139.459,15.357
				c0.062-0.181,0.054-0.388-0.022-0.62c-0.077-0.231-0.187-0.468-0.334-0.705c-0.147-0.237-0.333-0.46-0.55-0.667
				c-0.218-0.206-0.431-0.375-0.645-0.505c-1.18,0.475-1.765,0.718-2.917,1.216c-0.938,3.14-1.408,4.709-2.346,7.849
				c0.693,0.365,1.351,0.741,1.967,1.125c0.617,0.382,1.217,0.78,1.804,1.19C137.634,20.687,138.241,18.911,139.459,15.357z"/>
			<path fill="#FFFFFF" d="M145.971,30.428c-0.815-0.301-5.09-4.775-5.09-4.775c0.007-0.077,1.492-1.039,1.985-2.262
				c1.274-3.163,1.911-4.743,3.186-7.906c2.267,0.189,5.764-0.986,6.692-0.702c1.243,0.38,3.478,3.832,5.021,4.727
				c-2.209,4.178-3.315,6.268-5.524,10.446C149.939,29.654,146.608,30.664,145.971,30.428z M153.404,19.628
				c-1.456-1.257-2.202-1.875-3.723-3.09c-1.604,3.642-2.402,5.461-4.006,9.103c0.333,0.298,0.672,0.599,1.012,0.903
				c0.339,0.303,0.699,0.616,1.063,0.936c0.501,0.441,0.931,0.81,1.292,1.083C150.787,24.989,151.659,23.202,153.404,19.628z"/>
			<path fill="#FFFFFF" d="M165.909,40.058c-0.85-0.402-2.085-2.821-2.93-3.288c-0.974-0.538-3.272-0.181-3.757-0.439
				c-0.676-0.36-4.325-5.283-4.325-5.283c0.022-0.102,1.718-0.898,2.347-1.99c1.69-2.937,2.539-4.405,4.229-7.342
				c-0.456-1.623-0.483-2.856-0.013-3.703c0.753-1.354,2.729-2.039,6.001-1.881c0.019,0.138,0.027,0.208,0.045,0.346
				c-1.502,0.238-2.424,0.688-2.791,1.316c-0.135,0.23-0.063,1.131,0.231,2.603c0.291,1.452,0.186,2.651-0.364,3.54
				c2.762-0.264,4.168-0.361,7.019-0.478c0.869,1.778,0.906,3.267,0.189,4.455c2.85-0.134,4.296-0.163,7.232-0.138
				c0.746,2.172,0.68,3.724-0.092,4.654c-2.72,3.279-4.08,4.918-6.8,8.197C170.192,39.97,166.785,40.472,165.909,40.058z
				 M167.98,26.801c0.177-0.263,0.202-0.588,0.215-0.835c0.003-0.062-0.101-0.606-0.375-1.599c-1.561,0.151-2.333,0.237-3.864,0.433
				c-1.732,2.804-2.599,4.206-4.331,7.009c0.684,0.854,1.644,1.911,2.85,3.193C164.677,31.72,165.778,30.082,167.98,26.801z
				 M175.478,31.138c0.272-0.349,0.273-0.885,0.167-1.492c-0.02-0.111-0.039-0.258-0.078-0.411c-0.039-0.152-0.09-0.349-0.152-0.586
				c-1.672-0.003-2.502,0.009-4.146,0.059c-1.996,2.778-2.995,4.167-4.991,6.946c0.288,0.334,0.588,0.677,0.894,1.026
				c0.305,0.349,0.637,0.709,0.995,1.061c0.232,0.228,0.632,0.639,1.181,1.238C171.798,35.843,173.026,34.275,175.478,31.138z"/>
			<path fill="#FFFFFF" d="M180.748,40.499c-1.054,1.134-1.582,1.701-2.636,2.835c0.675,1.169,1.001,1.759,1.635,2.938
				c1.243,0.17,1.869,0.263,3.125,0.468c0.006,0.232,0.011,0.35,0.015,0.582c-0.407-0.073-0.829-0.14-1.263-0.199
				c-0.433-0.059-0.896-0.109-1.392-0.15c-1.697-0.175-2.538-0.245-4.207-0.355c-0.713-1.659-2.993-4.373-2.993-4.373
				c0.034-0.104,1.94-0.624,2.655-1.443c2.604-2.984,3.908-4.477,6.513-7.461c1.07,0.259,2.158,0.485,3.269,0.677
				c1.109,0.191,2.242,0.366,3.403,0.526c0.462,2.734,0.649,4.097,0.936,6.802C186.021,40.73,183.018,40.507,180.748,40.499z
				 M185.654,35.157c-1.742,1.876-2.614,2.813-4.356,4.69c1.998,0.084,3.007,0.146,5.043,0.314
				C186.114,38.168,185.978,37.167,185.654,35.157z"/>
			<path fill="#FFFFFF" d="M198.676,49.183c-0.036-1.267-0.067-1.902-0.141-3.178c-0.848-0.172-1.27-0.254-2.112-0.411
				c-2.992,2.526-4.49,3.788-7.482,6.314c0.147,0.982,0.217,1.475,0.34,2.453c0.578,0.109,0.869,0.165,1.45,0.281
				c-0.005,0.244-0.009,0.365-0.016,0.609c-1.963-0.257-2.937-0.363-4.865-0.535c-0.128-1.734-1.554-5.125-1.554-5.125
				c0.062-0.095,1.88-0.298,2.812-1.139c2.245-2.027,3.37-3.041,5.615-5.068c0.484-0.438,0.65-1.045,0.495-1.826
				c-0.345-0.076-0.516-0.114-0.86-0.187c-0.023-0.233-0.036-0.35-0.061-0.583c1.945,0.159,2.928,0.257,4.904,0.493
				c0.385,0.864,0.557,1.542,0.562,1.992c0.007,0.574-0.226,1.176-0.736,1.756c2.183,0.42,3.283,0.655,5.498,1.178
				c-0.014,1.469-0.032,2.2-0.093,3.654C200.921,49.565,200.171,49.43,198.676,49.183z"/>
		</g>
	</g>
</g>
</svg>
