<?xml version="1.0" encoding="utf-8"?>
<!-- Generator: Adobe Illustrator 15.0.0, SVG Export Plug-In . SVG Version: 6.00 Build 0)  -->
<!DOCTYPE svg PUBLIC "-//W3C//DTD SVG 1.1//EN" "http://www.w3.org/Graphics/SVG/1.1/DTD/svg11.dtd">
<svg version="1.1" id="Layer_1" xmlns="http://www.w3.org/2000/svg" xmlns:xlink="http://www.w3.org/1999/xlink" x="0px" y="0px"
	 width="202.08px" height="60px" viewBox="0 0 202.08 60" enable-background="new 0 0 202.08 60" xml:space="preserve">
<path fill="#FFFFFF" d="M8.324,38.493c-0.031,1.857-0.024,3.704,0.02,5.54c1.41-0.39,2.813-0.751,4.211-1.084
	c1.401,1.537,2.803,3.075,4.204,4.612c-0.491,0.748-0.884,1.542-1.177,2.376c-0.074,0.217-0.179,0.53-0.312,0.939
	s-0.286,0.906-0.454,1.49c-1.379,0.469-2.528,1.152-3.426,2.026c-0.862,0.84-1.591,1.937-2.167,3.278
	c-0.192,0.051-0.384,0.104-0.576,0.156c-0.381-2.384-0.698-4.797-0.95-7.236c-1.353,0.477-2.71,0.982-4.07,1.517
	c-1.297-1.17-2.595-2.34-3.892-3.51c0.82-1.815,1.378-3.683,1.679-5.632c2.406-1.015,4.061-1.881,4.987-2.706
	c0.25-0.268,0.501-0.535,0.753-0.8c0.296-0.259,0.491-0.585,0.585-0.981c0.095-0.395,0.038-0.709-0.176-0.944
	c-0.152-0.167-0.678-0.283-1.583-0.337c-0.123-0.028-0.246-0.056-0.37-0.083c-0.246-0.265-0.109-0.625,0.414-1.075
	c0.655-0.562,1.264-0.525,1.821,0.097C8.182,36.509,8.332,37.296,8.324,38.493L8.324,38.493L8.324,38.493z M6.766,42.578
	c-0.273,0.278-0.573,0.567-0.901,0.869c-0.942,0.868-2.132,1.648-3.583,2.367c0.933,0.909,1.866,1.818,2.8,2.727
	c0.842-0.332,1.684-0.652,2.524-0.962c-0.076-1.919-0.111-3.853-0.104-5.797C7.284,42.036,7.039,42.301,6.766,42.578L6.766,42.578z
	 M8.424,47.137c0.056,2.174,0.166,4.331,0.326,6.469c0.402-0.59,0.96-1.232,1.677-1.917c0.98-0.937,2.228-1.678,3.722-2.2
	c-1.033-1.094-2.065-2.188-3.097-3.283C10.178,46.504,9.302,46.814,8.424,47.137L8.424,47.137z"/>
<path fill="#FFFFFF" d="M29.699,40.719c-1.836,0.081-3.194-0.414-4.045-1.553c-0.785,1.965-1.514,3.936-2.187,5.908
	c-1.803,0.253-3.272-0.239-4.386-1.548c-1.93-2.272-3.859-4.545-5.789-6.818c-0.317,0.008-0.635,0.018-0.953,0.028
	c-0.144,0.319-0.286,0.64-0.427,0.959c-0.188-0.006-0.376-0.012-0.565-0.018c0.473-1.473,0.973-2.946,1.5-4.416
	c1.263-0.141,2.519-0.261,3.768-0.362c-0.163,0.459-0.323,0.918-0.48,1.377c1.878,2.341,3.757,4.683,5.636,7.024
	c0.41,0.511,1.113,0.654,2.104,0.452c0.414-1.123,0.845-2.243,1.295-3.362c-1.691-2.269-3.383-4.537-5.075-6.806
	c-0.468-0.083-0.938-0.164-1.409-0.242c0.388-1.097,0.792-2.194,1.211-3.289c1.233-0.042,2.459-0.064,3.677-0.069
	c-0.169,0.448-0.336,0.896-0.5,1.344c1.847,2.626,3.695,5.253,5.542,7.879c0.208,0.295,0.728,0.379,1.555,0.267
	c0.11-0.234,0.221-0.468,0.333-0.702c0.168,0.025,0.335,0.051,0.503,0.077C30.548,38.139,30.111,39.429,29.699,40.719L29.699,40.719
	z"/>
<path fill="#FFFFFF" d="M43.449,32.556c-1.011-0.063-1.796-0.271-2.348-0.641c-0.552-0.369-1.076-0.994-1.569-1.877
	c-1.309-2.347-2.617-4.693-3.926-7.04c-0.738-0.103-1.479-0.2-2.226-0.29c-0.54,0.964-1.065,1.931-1.576,2.901
	c1.442,2.388,2.884,4.776,4.326,7.165c0.488,0.16,0.974,0.323,1.457,0.489c-0.401,1.055-0.786,2.11-1.154,3.167
	c-1.17-0.142-2.352-0.267-3.542-0.373c0.102-0.475,0.208-0.95,0.316-1.426c-1.563-2.434-3.127-4.868-4.69-7.302
	c-0.316-0.492-0.869-0.762-1.665-0.798c-0.116,0.218-0.23,0.436-0.344,0.653c-0.182-0.032-0.364-0.063-0.547-0.094
	c0.468-1.295,0.958-2.589,1.472-3.881c1.937-0.163,3.281,0.435,4.057,1.725c0.608-1.154,1.15-2.191,1.614-3.112
	c0.464-0.921,0.855-1.717,1.167-2.39c1.176,0.192,2.342,0.4,3.498,0.623c0.334-0.596,0.673-1.191,1.019-1.784
	c0.176,0.051,0.353,0.103,0.529,0.155c-0.123,0.409-0.233,0.838-0.332,1.287c-0.098,0.45-0.188,0.908-0.271,1.376
	c1.369,2.619,2.737,5.238,4.105,7.858c0.341,0.281,0.815,0.447,1.418,0.501c0.168-0.233,0.338-0.465,0.509-0.697
	c0.161,0.047,0.321,0.095,0.481,0.142C44.61,30.11,44.018,31.332,43.449,32.556z"/>
<path fill="#FFFFFF" d="M57.974,23.493c-1.777,1.318-3.116,2.761-4.021,4.283c-2.261-0.495-4.631-0.455-7.048,0.141
	c0.375-0.791,0.323-1.714-0.175-2.771c-1.143-2.428-2.287-4.856-3.43-7.284c0.386-0.297,0.806-0.663,1.263-1.097
	c0.458-0.433,0.964-0.938,1.525-1.516c-1.927-0.188-3.876-0.332-5.848-0.433c-0.465-0.96-0.929-1.921-1.394-2.881
	c4.794,0.177,9.468,0.611,14.004,1.278c0.147-0.578,0.516-1.105,1.108-1.575c-0.031,0.534,0.036,1.022,0.199,1.464
	C55.43,16.566,56.702,20.029,57.974,23.493L57.974,23.493z M51.226,15.867c-1.18-0.184-2.371-0.352-3.57-0.503
	c-0.316,0.372-0.629,0.745-0.939,1.119c1.229,2.807,2.458,5.614,3.688,8.421c1.447-0.121,2.886-0.216,4.317-0.284
	C53.556,21.702,52.391,18.785,51.226,15.867L51.226,15.867z"/>
<path fill="#FFFFFF" d="M69.881,22.49c-1.647-0.368-2.714-1.325-3.167-2.922c-1.255,1.607-2.458,3.232-3.607,4.873
	c-0.057,0.018-0.112,0.035-0.169,0.053c-2.056-0.902-3.351-1.971-3.811-3.285c-0.682-1.943-0.21-4.262,1.603-6.909
	c-1.012-1.155-2.041-2.301-3.088-3.437c0.167-0.042,0.334-0.083,0.501-0.125c1.443-0.34,2.605-1.143,3.526-2.432
	c1.965-0.014,3.917,0.016,5.854,0.087c0.296-0.326,0.595-0.65,0.896-0.974c0.036,0.037,0.072,0.075,0.108,0.112
	c-0.419,0.95-0.639,1.891-0.669,2.82c0.721,2.845,1.443,5.69,2.164,8.535c0.302,0.503,0.712,0.76,1.233,0.775
	c0.185-0.147,0.371-0.294,0.558-0.44c0.152,0.068,0.303,0.137,0.455,0.206C71.45,20.442,70.655,21.463,69.881,22.49z M64.32,11.093
	c-1.977-0.09-3.971-0.135-5.98-0.134c0.926,1.047,1.838,2.103,2.736,3.166c1.429,0.152,2.845,0.328,4.249,0.527
	C64.99,13.465,64.655,12.279,64.32,11.093L64.32,11.093z M65.526,15.224c-1.416-0.219-2.846-0.415-4.288-0.586
	c-0.356,1.327-0.36,2.48-0.042,3.46c0.472,1.452,1.592,2.576,3.306,3.424c0.653-0.94,1.323-1.875,2.01-2.805
	C66.184,17.553,65.854,16.388,65.526,15.224L65.526,15.224z"/>
<path fill="#FFFFFF" d="M83.364,14.131c-1.022,1.355-2.414,2.628-4.159,3.854c-0.365,0.266-0.791,0.585-1.276,0.957
	c-0.485,0.373-1.029,0.799-1.627,1.281c-1.374,1.275-1.945,2.301-1.78,3.042c0.024,0.052,0.047,0.104,0.071,0.156
	c0.137,0.612,0.541,0.994,1.203,1.153c0.542,0.139,1.133,0.145,1.778,0.021c0.868-0.167,1.522-0.479,1.97-0.943
	c0.546-0.687,0.974-1.052,1.268-1.1c0.181-0.029,0.33,0.026,0.446,0.167c0.003,0.021,0.041,0.106,0.111,0.254
	c0.08,0.486-0.34,0.947-1.246,1.397c-0.737,0.376-1.345,0.613-1.832,0.705c-0.155,0.029-0.311,0.059-0.465,0.088
	c-2.122,0.41-3.385,0.049-3.811-1.167c-0.02-0.087-0.04-0.175-0.06-0.262c-0.15-0.654,0.076-1.66,0.72-3.008
	c0.673-1.331,1.002-2.136,0.942-2.421c-0.599-2.907-1.198-5.813-1.798-8.719c-0.108-0.526-0.517-0.982-1.235-1.361
	c-0.354,0.335-0.704,0.672-1.052,1.011c-0.17-0.112-0.342-0.224-0.513-0.336c1.008-1.183,2.044-2.354,3.109-3.514
	c1.811,0.433,2.842,1.479,3.126,3.086c1.503-1.462,3.056-2.899,4.658-4.31C83.705,5.37,84.69,7.043,84.94,9.13
	C85.146,10.844,84.594,12.501,83.364,14.131L83.364,14.131L83.364,14.131z M79.587,7.174c-0.776,0.719-1.541,1.444-2.292,2.176
	c0.484,2.7,0.967,5.4,1.451,8.101c0.948-0.959,1.74-2.024,2.374-3.206c0.683-1.347,0.958-2.604,0.788-3.779
	C81.697,9.004,80.935,7.897,79.587,7.174L79.587,7.174L79.587,7.174z"/>
<path fill="#FFFFFF" d="M117.191,19.867c-0.814-0.583-1.339-1.198-1.567-1.856c-0.212-0.588-0.261-1.394-0.138-2.417
	c0.318-2.656,0.637-5.312,0.956-7.968c-0.496-0.497-0.996-0.991-1.503-1.482c-0.976,0.484-1.94,0.979-2.893,1.483
	c-0.239,2.765-0.479,5.53-0.718,8.295c0.277,0.405,0.551,0.811,0.822,1.217c-0.905,0.637-1.796,1.284-2.673,1.94
	c-0.841-0.778-1.699-1.547-2.573-2.307c0.373-0.329,0.748-0.656,1.126-0.982c0.172-2.871,0.344-5.742,0.516-8.613
	c0.029-0.49-0.448-1.07-1.451-1.723c-1.052,0.612-2.09,1.236-3.113,1.871c-0.069,2.729-0.139,5.459-0.208,8.188
	c0.313,0.388,0.623,0.778,0.93,1.168c-0.888,0.688-1.761,1.385-2.618,2.091c-0.852-0.726-1.719-1.443-2.602-2.152
	c0.316-0.35,0.636-0.698,0.958-1.045c-0.004-2.876-0.008-5.752-0.012-8.627c-0.001-0.604-0.322-1.12-0.971-1.54
	c-0.206,0.125-0.411,0.25-0.615,0.375c-0.118-0.122-0.235-0.243-0.354-0.364c1.02-0.855,2.06-1.699,3.118-2.53
	c1.707,0.797,2.516,2.012,2.473,3.598c1.889-1.139,3.827-2.24,5.812-3.298c1.221,1.068,1.952,2.309,2.217,3.7
	c1.242-0.659,3.02-1.656,5.408-2.926c0.801,0.818,1.587,1.642,2.359,2.473c0.582-0.303,1.167-0.603,1.757-0.898
	c0.123,0.143,0.246,0.286,0.369,0.43c-0.183,0.153-0.359,0.302-0.526,0.446c-0.167,0.145-0.328,0.285-0.479,0.421
	c-0.214,0.195-0.404,0.371-0.57,0.528c-0.167,0.157-0.313,0.306-0.438,0.446c-0.428,2.913-0.856,5.825-1.284,8.738
	c0.131,0.426,0.433,0.831,0.903,1.218c0.244-0.099,0.489-0.198,0.734-0.295c0.124,0.132,0.247,0.265,0.37,0.398
	C119.518,18.52,118.345,19.185,117.191,19.867L117.191,19.867z"/>
<path fill="#FFFFFF" d="M127.879,21.767c-1.511-1.667-3.435-2.961-5.729-3.83c0.72-0.376,1.198-1.166,1.423-2.377
	c0.483-2.609,0.966-5.219,1.449-7.828c2.129-0.121,4.121-0.629,6.014-1.544c2.125,1.867,3.928,3.129,5.514,3.761
	c-0.976,3.52-1.952,7.04-2.927,10.56C131.429,20.528,129.507,20.959,127.879,21.767L127.879,21.767L127.879,21.767z M132.591,10.647
	c-1.32-0.822-2.661-1.624-4.021-2.406c-0.644,3.023-1.287,6.046-1.93,9.069c0.37,0.236,0.744,0.475,1.122,0.716
	c0.377,0.242,0.771,0.489,1.181,0.742c0.558,0.355,1.031,0.639,1.423,0.848C131.107,16.627,131.849,13.637,132.591,10.647
	L132.591,10.647z"/>
<path fill="#FFFFFF" d="M147.349,15.414c-0.497-0.883-1.007-1.765-1.529-2.643c-0.597,0.151-1.191,0.306-1.782,0.465
	c-0.944,2.746-1.888,5.492-2.832,8.239c0.47,0.651,0.932,1.305,1.386,1.961c0.41-0.107,0.821-0.212,1.233-0.315
	c0.09,0.175,0.18,0.35,0.269,0.525c-1.341,0.446-2.664,0.915-3.968,1.403c-0.903-1.434-2.097-2.706-3.575-3.792
	c0.765-0.29,1.32-0.964,1.655-2.034c0.672-2.15,1.343-4.301,2.015-6.452c0.174-0.556,0.03-1.138-0.44-1.744
	c-0.249,0.055-0.498,0.112-0.745,0.168c-0.102-0.158-0.205-0.315-0.308-0.473c1.305-0.502,2.627-0.986,3.966-1.451
	c0.678,0.586,1.114,1.081,1.316,1.476c0.28,0.492,0.356,1.083,0.23,1.773c1.535-0.402,3.089-0.778,4.663-1.127
	c0.536,1.041,1.056,2.084,1.559,3.13C149.416,14.81,148.377,15.106,147.349,15.414z"/>
<path fill="#FFFFFF" d="M156.377,31.846c-0.534-0.841-0.813-1.585-0.825-2.239c-0.012-0.653,0.204-1.434,0.652-2.34
	c1.191-2.406,2.382-4.812,3.572-7.218c-0.339-0.646-0.685-1.291-1.037-1.934c-1.106,0.135-2.205,0.284-3.294,0.447
	c-1.149,2.536-2.298,5.072-3.447,7.608c0.145,0.479,0.287,0.958,0.425,1.438c-1.099,0.298-2.187,0.611-3.263,0.939
	c-0.544-1.007-1.106-2.012-1.686-3.012c0.446-0.198,0.895-0.394,1.346-0.586c1.118-2.659,2.236-5.317,3.354-7.976
	c0.226-0.538,0.136-1.131-0.28-1.779c-0.243,0.037-0.485,0.074-0.727,0.112c-0.076-0.162-0.152-0.324-0.228-0.486
	c1.32-0.391,2.656-0.762,4.006-1.113c1.226,1.433,1.499,2.846,0.876,4.213c1.297-0.194,2.462-0.37,3.49-0.54
	c1.027-0.169,1.912-0.322,2.649-0.467c0.519,1.045,1.021,2.094,1.508,3.144c0.69-0.081,1.383-0.156,2.079-0.225
	c0.061,0.17,0.121,0.341,0.181,0.512c-0.414,0.14-0.835,0.301-1.266,0.483c-0.431,0.183-0.866,0.377-1.303,0.583
	c-1.382,2.612-2.765,5.224-4.148,7.836c-0.036,0.436,0.103,0.909,0.41,1.421c0.292-0.001,0.585,0,0.878,0.001
	c0.055,0.156,0.109,0.311,0.163,0.467C159.086,31.348,157.725,31.585,156.377,31.846L156.377,31.846z"/>
<path fill="#FFFFFF" d="M171.464,20.086c-0.156-0.088-0.312-0.177-0.468-0.264c0.87-0.827,1.746-1.649,2.629-2.466
	c0.909,0.519,1.813,1.047,2.714,1.586C174.694,19.295,173.069,19.677,171.464,20.086L171.464,20.086z M163.196,35.45
	c-1.006-1.509-1.124-2.859-0.286-4.069c0.112-0.169,0.224-0.339,0.335-0.508c1.465-2.543,2.931-5.086,4.396-7.629
	c-0.164-0.488-0.331-0.976-0.502-1.464c1.209-0.126,2.429-0.235,3.657-0.327c0.545,1.137,1.073,2.277,1.582,3.419
	c-0.457,0.095-0.911,0.191-1.364,0.291c-1.633,2.654-3.267,5.309-4.9,7.963c-0.129,0.447-0.019,0.928,0.325,1.448
	c0.262,0,0.525,0,0.788,0.001c0.052,0.15,0.103,0.299,0.154,0.449C165.973,35.142,164.577,35.284,163.196,35.45z"/>
<path fill="#FFFFFF" d="M176.684,44.415c-0.384-0.941-0.529-1.733-0.421-2.382c0.108-0.648,0.469-1.375,1.088-2.18
	c1.644-2.137,3.288-4.273,4.932-6.409c-0.223-0.707-0.453-1.414-0.689-2.121c-1.14-0.09-2.273-0.164-3.401-0.222
	c-1.625,2.273-3.251,4.546-4.877,6.819c0.057,0.502,0.111,1.004,0.163,1.505c-1.162,0.074-2.315,0.165-3.458,0.273
	c-0.361-1.103-0.741-2.206-1.138-3.308c0.485-0.106,0.973-0.21,1.462-0.311c1.617-2.4,3.234-4.801,4.852-7.201
	c0.327-0.485,0.347-1.089,0.048-1.811c-0.251-0.012-0.501-0.023-0.752-0.034c-0.046-0.175-0.092-0.35-0.139-0.524
	c1.399-0.124,2.812-0.225,4.236-0.302c0.968,1.659,0.982,3.109,0.103,4.334c1.342,0.069,2.548,0.129,3.616,0.169
	c1.066,0.04,1.987,0.068,2.757,0.075c0.331,1.139,0.645,2.278,0.943,3.416c0.711,0.061,1.424,0.129,2.14,0.203
	c0.03,0.182,0.06,0.363,0.088,0.544c-0.443,0.053-0.898,0.126-1.366,0.218c-0.469,0.092-0.943,0.196-1.423,0.311
	c-1.875,2.301-3.751,4.603-5.626,6.904c-0.116,0.423-0.063,0.92,0.152,1.49c0.295,0.059,0.591,0.12,0.887,0.182
	c0.027,0.165,0.053,0.33,0.079,0.496C179.51,44.477,178.091,44.432,176.684,44.415L176.684,44.415z"/>
<path fill="#FFFFFF" d="M198.404,46.746c-1.973,1.873-3.945,3.745-5.918,5.618c-0.543,0.515-0.935,1.523-1.21,3.009
	c-0.226,1.472-0.49,2.322-0.758,2.567c-0.034,0.03-0.067,0.061-0.101,0.091c-0.677,0.444-1.837,0.322-3.476-0.302
	c-0.69-0.265-1.379-0.521-2.068-0.768c-1.024-1.629-2.014-2.842-2.925-3.648c-1.004-0.887-2.254-1.647-3.734-2.253
	c-0.061-0.313-0.123-0.627-0.186-0.941c1.918-0.228,3.863-0.408,5.833-0.54c-0.376-1.314-0.775-2.628-1.199-3.941
	c2.438-2.791,4.875-5.582,7.313-8.373c0.444,0.249,0.927,0.488,1.449,0.72c0.521,0.232,1.091,0.464,1.712,0.7
	c0.137,0.058,0.47,0.181,1.002,0.375c0.531,0.194,1.26,0.458,2.188,0.805c1.07,2.025,2.088,4.069,3.056,6.128
	c1.143,0.375,2.289,0.77,3.438,1.183c-0.799,0.723-1.599,1.445-2.398,2.168l0,0C199.759,48.469,199.085,47.604,198.404,46.746z
	 M195.781,44.102c-0.997-1.483-2.02-2.949-3.071-4.396c-2.177,2.361-4.354,4.722-6.531,7.083c0.296,0.899,0.582,1.799,0.856,2.699
	c1.086,0.018,2.179,0.051,3.278,0.1C192.136,47.759,193.958,45.93,195.781,44.102L195.781,44.102z M188.257,53.431
	c0.157-1.223,0.576-2.301,1.276-3.226c-2.625,0.002-5.211,0.091-7.755,0.265c0.654,0.381,1.496,1.02,2.514,1.934
	c1.35,1.212,2.591,2.789,3.676,4.715c0.117-0.076,0.233-0.152,0.35-0.228C188.203,55.347,188.17,54.191,188.257,53.431
	L188.257,53.431z"/>
</svg>
